<?xml version="1.0" encoding="UTF-8" standalone="no"?>
<!-- Created with Inkscape (http://www.inkscape.org/) -->

<svg
   version="1.1"
   id="svg1"
   width="614.66669"
   height="461.33334"
   viewBox="0 0 614.66669 461.33334"
   xmlns="http://www.w3.org/2000/svg"
   xmlns:svg="http://www.w3.org/2000/svg">
  <defs
     id="defs1">
    <clipPath
       clipPathUnits="userSpaceOnUse"
       id="clipPath9">
      <path
         d="M 0,0 H 461 V 346 H 0 Z"
         id="path9" />
    </clipPath>
    <clipPath
       clipPathUnits="userSpaceOnUse"
       id="clipPath11">
      <path
         d="m 16.926,234.141 h 47.875 v 28.863 H 16.926 Z"
         transform="scale(1.3333333)"
         id="path11" />
    </clipPath>
    <clipPath
       clipPathUnits="userSpaceOnUse"
       id="clipPath13">
      <path
         d="M 0,0 H 461 V 346 H 0 Z"
         id="path13" />
    </clipPath>
    <clipPath
       clipPathUnits="userSpaceOnUse"
       id="clipPath15">
      <path
         d="m 16.926,170.367 h 47.875 v 28.867 H 16.926 Z"
         transform="scale(1.3333333)"
         id="path15" />
    </clipPath>
    <clipPath
       clipPathUnits="userSpaceOnUse"
       id="clipPath17">
      <path
         d="M 0,0 H 461 V 346 H 0 Z"
         transform="scale(1.0007235,-1)"
         id="path17" />
    </clipPath>
    <clipPath
       clipPathUnits="userSpaceOnUse"
       id="clipPath19">
      <path
         d="M 77.184,70.91 H 450.196 V 288.492 H 77.184 Z"
         transform="scale(1.3333333)"
         id="path19" />
    </clipPath>
    <clipPath
       clipPathUnits="userSpaceOnUse"
       id="clipPath20">
      <path
         d="M 0,0 H 461 V 346 H 0 Z"
         transform="scale(1.0007235,-1)"
         id="path20" />
    </clipPath>
    <clipPath
       clipPathUnits="userSpaceOnUse"
       id="clipPath22">
      <path
         d="M 77.184,70.91 H 450.196 V 288.492 H 77.184 Z"
         transform="scale(1.3333333)"
         id="path22" />
    </clipPath>
    <clipPath
       clipPathUnits="userSpaceOnUse"
       id="clipPath23">
      <path
         d="M 0,0 H 461 V 346 H 0 Z"
         transform="scale(1.0007235,-1)"
         id="path23" />
    </clipPath>
    <clipPath
       clipPathUnits="userSpaceOnUse"
       id="clipPath25">
      <path
         d="M 77.184,70.91 H 450.196 V 288.492 H 77.184 Z"
         transform="scale(1.3333333)"
         id="path25" />
    </clipPath>
    <clipPath
       clipPathUnits="userSpaceOnUse"
       id="clipPath26">
      <path
         d="M 0,0 H 461 V 346 H 0 Z"
         transform="scale(1.0007235,-1)"
         id="path26" />
    </clipPath>
    <clipPath
       clipPathUnits="userSpaceOnUse"
       id="clipPath28">
      <path
         d="M 77.184,70.91 H 450.196 V 288.492 H 77.184 Z"
         transform="scale(1.3333333)"
         id="path28" />
    </clipPath>
  </defs>
  <g
     id="g1">
    <path
       id="path1"
       d="M 0,0 H 461 V 346 H 0 Z"
       style="fill:#ffffff;fill-opacity:1;fill-rule:nonzero;stroke:none"
       transform="scale(1.3333333)" />
    <path
       id="path2"
       d="M 77.184,70.91 H 450.196 V 288.492 H 77.184 Z"
       style="fill:#ffffff;fill-opacity:1;fill-rule:nonzero;stroke:none"
       transform="scale(1.3333333)" />
    <path
       id="path3"
       d="m 94.205,-288.492 v -3.504"
       style="fill:none;stroke:#000000;stroke-width:0.800926;stroke-linecap:butt;stroke-linejoin:round;stroke-miterlimit:10;stroke-dasharray:none;stroke-opacity:1"
       transform="scale(1.3323693,-1.3333333)" />
    <text
       id="text3"
       xml:space="preserve"
       transform="matrix(1.3333333,0,0,1.3342975,118.30662,411.25128)"><tspan
         style="font-variant:normal;font-weight:normal;font-size:17.0074px;font-family:Verdana;writing-mode:lr-tb;fill:#000000;fill-opacity:1;fill-rule:nonzero;stroke:none"
         x="0"
         y="0"
         id="tspan3">0</tspan></text>
    <path
       id="path4"
       d="m 177.097,-288.492 v -3.504"
       style="fill:none;stroke:#000000;stroke-width:0.800926;stroke-linecap:butt;stroke-linejoin:round;stroke-miterlimit:10;stroke-dasharray:none;stroke-opacity:1"
       transform="scale(1.3323693,-1.3333333)" />
    <text
       id="text4"
       xml:space="preserve"
       transform="matrix(1.3333333,0,0,1.3342975,214.32227,411.25128)"><tspan
         style="font-variant:normal;font-weight:normal;font-size:17.0074px;font-family:Verdana;writing-mode:lr-tb;fill:#000000;fill-opacity:1;fill-rule:nonzero;stroke:none"
         x="0 10.812307 21.624615"
         y="0"
         id="tspan4">500</tspan></text>
    <path
       id="path5"
       d="m 259.985,-288.492 v -3.504"
       style="fill:none;stroke:#000000;stroke-width:0.800926;stroke-linecap:butt;stroke-linejoin:round;stroke-miterlimit:10;stroke-dasharray:none;stroke-opacity:1"
       transform="scale(1.3323693,-1.3333333)" />
    <text
       id="text5"
       xml:space="preserve"
       transform="matrix(1.3333333,0,0,1.3342975,317.54939,411.25128)"><tspan
         style="font-variant:normal;font-weight:normal;font-size:17.0074px;font-family:Verdana;writing-mode:lr-tb;fill:#000000;fill-opacity:1;fill-rule:nonzero;stroke:none"
         x="0 10.812307 21.624615 32.43692"
         y="0"
         id="tspan5">1000</tspan></text>
    <path
       id="path6"
       d="m 342.873,-288.492 v -3.504"
       style="fill:none;stroke:#000000;stroke-width:0.800926;stroke-linecap:butt;stroke-linejoin:round;stroke-miterlimit:10;stroke-dasharray:none;stroke-opacity:1"
       transform="scale(1.3323693,-1.3333333)" />
    <text
       id="text6"
       xml:space="preserve"
       transform="matrix(1.3333333,0,0,1.3342975,427.98797,411.25128)"><tspan
         style="font-variant:normal;font-weight:normal;font-size:17.0074px;font-family:Verdana;writing-mode:lr-tb;fill:#000000;fill-opacity:1;fill-rule:nonzero;stroke:none"
         x="0 10.812307 21.624615 32.43692"
         y="0"
         id="tspan6">1500</tspan></text>
    <path
       id="path7"
       d="m 425.761,-288.492 v -3.504"
       style="fill:none;stroke:#000000;stroke-width:0.800926;stroke-linecap:butt;stroke-linejoin:round;stroke-miterlimit:10;stroke-dasharray:none;stroke-opacity:1"
       transform="scale(1.3323693,-1.3333333)" />
    <text
       id="text7"
       xml:space="preserve"
       transform="matrix(1.3333333,0,0,1.3342975,538.42654,411.25128)"><tspan
         style="font-variant:normal;font-weight:normal;font-size:17.0074px;font-family:Verdana;writing-mode:lr-tb;fill:#000000;fill-opacity:1;fill-rule:nonzero;stroke:none"
         x="0 10.812307 21.624615 32.43692"
         y="0"
         id="tspan7">2000</tspan></text>
    <text
       id="text8"
       xml:space="preserve"
       transform="matrix(1.3333333,0,0,1.3342975,177.27065,441.59886)"><tspan
         style="font-variant:normal;font-weight:normal;font-size:20.0087px;font-family:Verdana;writing-mode:lr-tb;fill:#000000;fill-opacity:1;fill-rule:nonzero;stroke:none"
         x="0 12.697383 18.26808 30.929823 43.656281 56.318024 61.90873 74.165764 82.404495 88.758499 100.89564 113.15267 118.72337 131.38512 143.72453 150.07854 163.55063 175.80766 188.46941 200.09038 206.4444 212.34492 225.00667 237.73312 249.65236"
         y="0"
         id="tspan8">Singular Value Rank Index</tspan></text>
    <path
       id="path8"
       d="M 77.239,-248.656 H 73.737"
       style="fill:none;stroke:#000000;stroke-width:0.800926;stroke-linecap:butt;stroke-linejoin:round;stroke-miterlimit:10;stroke-dasharray:none;stroke-opacity:1"
       transform="scale(1.3323693,-1.3333333)" />
    <text
       id="text9"
       xml:space="preserve"
       transform="matrix(1.3333333,0,0,1.3342975,64.720264,340.16712)"><tspan
         style="font-variant:normal;font-weight:normal;font-size:17.0074px;font-family:Verdana;writing-mode:lr-tb;fill:#000000;fill-opacity:1;fill-rule:nonzero;stroke:none"
         x="0 10.812307"
         y="0"
         id="tspan9">20</tspan></text>
    <g
       id="g10"
       clip-path="url(#clipPath11)">
      <path
         d="m 36.094,249.082 h 10.645 v 1.414 H 36.094 Z"
         style="fill:#000000;fill-opacity:1;fill-rule:nonzero;stroke:none"
         transform="scale(1.3333333)"
         clip-path="url(#clipPath9)"
         id="path10" />
    </g>
    <path
       id="path12"
       d="M 77.239,-184.883 H 73.737"
       style="fill:none;stroke:#000000;stroke-width:0.800926;stroke-linecap:butt;stroke-linejoin:round;stroke-miterlimit:10;stroke-dasharray:none;stroke-opacity:1"
       transform="scale(1.3323693,-1.3333333)" />
    <text
       id="text12"
       xml:space="preserve"
       transform="matrix(1.3333333,0,0,1.3342975,64.720264,255.13708)"><tspan
         style="font-variant:normal;font-weight:normal;font-size:17.0074px;font-family:Verdana;writing-mode:lr-tb;fill:#000000;fill-opacity:1;fill-rule:nonzero;stroke:none"
         x="0 10.812307"
         y="0"
         id="tspan12">10</tspan></text>
    <g
       id="g14"
       clip-path="url(#clipPath15)">
      <path
         d="m 36.094,185.312 h 10.645 v 1.41 H 36.094 Z"
         style="fill:#000000;fill-opacity:1;fill-rule:nonzero;stroke:none"
         transform="scale(1.3333333)"
         clip-path="url(#clipPath13)"
         id="path14" />
    </g>
    <path
       id="path16"
       d="M 77.239,-121.113 H 73.737"
       style="fill:none;stroke:#000000;stroke-width:0.800926;stroke-linecap:butt;stroke-linejoin:round;stroke-miterlimit:10;stroke-dasharray:none;stroke-opacity:1"
       transform="scale(1.3323693,-1.3333333)" />
    <text
       id="text16"
       xml:space="preserve"
       transform="matrix(1.3333333,0,0,1.3342975,79.151003,170.10705)"><tspan
         style="font-variant:normal;font-weight:normal;font-size:17.0074px;font-family:Verdana;writing-mode:lr-tb;fill:#000000;fill-opacity:1;fill-rule:nonzero;stroke:none"
         x="0"
         y="0"
         id="tspan16">0</tspan></text>
    <text
       id="text17"
       xml:space="preserve"
       transform="matrix(0,-1.3333333,1.3323698,0,34.840113,387.64849)"><tspan
         style="font-variant:normal;font-weight:normal;font-size:20.0231px;font-family:Verdana;writing-mode:lr-tb;fill:#000000;fill-opacity:1;fill-rule:nonzero;stroke:none"
         x="0 10.805305 23.058142 35.773777 42.152401 54.405239 61.444626 67.82325 80.529816 86.104546 98.775444 111.5111 124.182 129.75673 142.04265 150.26732 156.64594 168.79185 181.05775 186.63248 199.30338 211.63168"
         y="0"
         id="tspan17">Log of Singular Values</tspan></text>
    <g
       id="g18"
       clip-path="url(#clipPath19)">
      <path
         d="m 94.205,-138.074 0.332,-5.946 0.332,-1.285 0.333,-1.281 0.164,-0.109 0.332,-1.532 0.332,-0.964 0.333,-0.36 0.332,-0.215 0.164,-0.07 0.332,-0.543 0.497,-0.492 0.332,-0.395 0.164,-0.054 0.168,-0.313 0.497,-0.277 0.664,-0.586 1.157,-0.719 0.333,-0.207 0.664,-0.336 1.493,-0.738 0.329,-0.195 0.168,-0.039 0.332,-0.219 0.993,-0.434 0.332,-0.144 0.165,-0.02 0.496,-0.273 0.997,-0.473 7.626,-2.5 0.497,-0.066 0.496,-0.18 15.254,-3.711 0.332,-0.078 0.328,-0.117 1.161,-0.219 0.997,-0.246 0.661,-0.227 1.493,-0.308 0.664,-0.176 0.829,-0.231 1.161,-0.32 0.661,-0.105 0.332,-0.133 0.829,-0.195 0.496,-0.219 0.497,-0.067 0.832,-0.25 0.993,-0.214 1.658,-0.547 1.825,-0.465 0.829,-0.168 11.106,-2.891 0.828,-0.136 2.655,-0.536 1.157,-0.218 4.976,-0.875 0.496,-0.082 1.494,-0.196 1.821,-0.265 1.494,-0.223 1.657,-0.25 5.137,-0.633 10.613,-1.14 2.318,-0.208 1.657,-0.156 33.157,-2.5 11.106,-0.699 45.259,-2.559 6.798,-0.382 1.99,-0.11 7.954,-0.453 3.151,-0.176 2.651,-0.14 6.797,-0.379 3.816,-0.235 5.468,-0.308 5.141,-0.313 16.41,-1.031 1.658,-0.109 5.472,-0.371 8.62,-0.649 25.53,-2.328 1.161,-0.148 1.489,-0.172 0.829,-0.117 0.997,-0.133 2.154,-0.27 2.486,-0.383 3.647,-0.582 0.997,-0.23 3.479,-0.734 0.665,-0.204 1.821,-0.449 0.665,-0.219 1.657,-0.503 0.332,-0.196 0.333,-0.105 0.332,-0.172 1.325,-0.516 1.822,-0.933 0.5,-0.52 0.829,-0.488 0.496,-0.512 0.333,-0.164 0.164,-0.258 0.168,-0.015 0.328,-0.231 0.333,-0.207 0.496,-0.871 0.168,-0.445 0.332,-0.16 0.829,-1.903 0.328,-0.34 0.333,-1.472 0.664,-0.996 0.164,-1.938 0.169,-0.258 0.164,-3.484 0.168,-7.047 0.328,-30.934 h 12.103 l 0.332,-13.218 0.332,-2.125 0.164,-2.008 0.333,-0.133 0.164,-1.41 0.829,-13.813"
         style="fill:none;stroke:#1f77b4;stroke-width:1.50174;stroke-linecap:square;stroke-linejoin:round;stroke-miterlimit:10;stroke-dasharray:none;stroke-opacity:1"
         transform="scale(1.3323693,-1.3333333)"
         clip-path="url(#clipPath17)"
         id="path18" />
    </g>
    <g
       id="g21"
       clip-path="url(#clipPath22)">
      <path
         d="m 94.205,-99.648 0.168,-38.317 0.164,-2.277 0.168,-0.149 0.164,-1.605 0.168,-0.16 0.497,-1.696 0.332,-0.554 0.329,-0.602 0.332,-0.687 0.332,-0.246 0.993,-1.356 0.332,-0.109 0.333,-0.313 0.828,-0.613 0.168,-0.043 0.164,-0.203 0.497,-0.137 0.496,-0.34 0.665,-0.273 0.496,-0.32 0.829,-0.438 0.5,-0.273 0.497,-0.286 0.496,-0.25 2.655,-1.519 0.828,-0.777 0.329,-0.524 0.168,-0.043 0.496,-0.746 0.829,-1.219 0.332,-0.816 0.164,-0.094 0.665,-1.879 0.164,-0.054 0.332,-1.344 0.169,-0.168 0.496,-2.293 0.164,-1.188 0.168,-0.355 0.329,-1.481 0.168,-0.269 0.332,-1.797 0.328,-1.422 0.333,-2.469 0.168,-0.535 0.496,-3.984 0.332,-1.492 0.333,-4.117 0.164,-0.09 0.164,-1.907 0.168,-22.289 h 318.125"
         style="fill:none;stroke:#ff7f0e;stroke-width:1.50174;stroke-linecap:square;stroke-linejoin:round;stroke-miterlimit:10;stroke-dasharray:none;stroke-opacity:1"
         transform="scale(1.3323693,-1.3333333)"
         clip-path="url(#clipPath20)"
         id="path21" />
    </g>
    <g
       id="g24"
       clip-path="url(#clipPath25)">
      <path
         d="m 94.205,-80.801 0.168,-26.133 0.332,-6.691 0.164,-0.926 0.333,-3.703 0.496,-2.457 0.168,-0.273 0.497,-2.067 0.164,-0.242 0.168,-0.469 0.164,-0.941 0.164,-0.164 0.501,-2.028 0.164,-0.382 0.164,-0.035 0.332,-0.797 0.168,-0.411 0.165,-0.789 0.828,-1.132 0.168,-0.696 0.164,-0.093 0.333,-0.727 0.164,-0.289 0.168,-0.055 0.328,-0.637 0.501,-0.832 0.66,-0.871 0.168,-0.414 0.165,-0.035 1.493,-2.254 0.332,-0.347 0.329,-0.637 0.168,-0.043 0.496,-0.711 0.164,-0.066 0.665,-0.832 0.164,-0.129 0.168,-0.403 0.164,-0.039 0.665,-0.922 0.993,-0.867 0.5,-0.586 0.164,-0.066 1.161,-1.262 0.497,-0.383 0.828,-0.804 0.333,-0.188 0.332,-0.387 0.332,-0.281 0.661,-0.601 0.332,-0.141 0.665,-0.773 0.164,-0.043 0.164,-0.172 0.168,-0.004 0.164,-0.285 0.665,-0.286 0.164,-0.269 0.168,-0.027 0.332,-0.34 0.165,-0.02 0.164,-0.379 0.829,-0.519 0.5,-0.367 0.661,-0.34 0.5,-0.328 0.164,-0.332 0.332,-0.102 0.497,-0.465 2.322,-1.285 0.164,-0.371 0.332,-0.125 0.332,-0.281 0.333,-0.141 0.496,-0.16 1.325,-0.863 h 0.165 l 0.332,-0.387 0.332,-0.16 0.164,-0.047 0.333,-0.301 0.168,-0.043 0.164,-0.215 h 0.168 l 0.661,-0.422 0.664,-0.343 3.647,-1.688 0.333,-0.133 0.328,-0.035 0.332,-0.199 0.829,-0.297 0.332,-0.129 0.829,-0.176 0.496,-0.191 0.829,-0.266 0.332,-0.105 4.644,-1.254 0.829,-0.211 1.489,-0.348 0.829,-0.152 0.665,-0.152 1.657,-0.309 1.161,-0.262 0.993,-0.117 1.161,-0.152 2.654,-0.375 15.582,-1.942 8.455,-0.777 0.332,-0.09 4.144,-0.336 0.997,-0.105 1.325,-0.129 2.983,-0.277 3.815,-0.336 1.822,-0.121 18.568,-1.543 0.993,-0.106 7.958,-0.613 1.658,-0.125 1.657,-0.137 15.085,-1.183 1.826,-0.129 1.489,-0.114 55.705,-4.57 5.468,-0.457 1.658,-0.164 1.825,-0.195 3.147,-0.278 1.161,-0.113 3.483,-0.359 1.822,-0.153 1.657,-0.156 2.819,-0.312 0.997,-0.11 2.818,-0.273 1.657,-0.172 10.277,-1.035 1.494,-0.192 1.489,-0.218 1.329,-0.098 2.65,-0.317 1.161,-0.125 3.98,-0.484 5.305,-0.648 0.828,-0.102 0.829,-0.125 2.322,-0.297 1.325,-0.273 7.459,-1.321 0.664,-0.195 1.325,-0.262 2.322,-0.554 0.497,-0.133 0.332,-0.066 1.325,-0.473 0.829,-0.168 0.997,-0.344 0.664,-0.098 0.661,-0.128 35.975,-0.075 3.98,-0.043 0.496,-0.234 0.661,-0.156 2.322,-0.957 1.825,-0.864 0.329,-0.25 2.157,-0.964 0.333,-0.157 0.164,-0.039 0.664,-0.609 1.49,-0.898 0.5,-0.376 0.164,-0.124 0.333,-0.403 0.164,-0.055 0.496,-0.425 0.333,-0.293 0.332,-0.43 0.332,-0.559 0.993,-1.125 0.664,-1.246 0.165,-0.043 0.996,-2.015 0.661,-2.508 0.168,-0.145 0.661,-2.605 0.5,-5.543 0.164,-2.715 0.165,-5.621"
         style="fill:none;stroke:#2ca02c;stroke-width:1.50174;stroke-linecap:square;stroke-linejoin:round;stroke-miterlimit:10;stroke-dasharray:none;stroke-opacity:1"
         transform="scale(1.3323693,-1.3333333)"
         clip-path="url(#clipPath23)"
         id="path24" />
    </g>
    <g
       id="g27"
       clip-path="url(#clipPath28)">
      <path
         d="m 94.205,-94.184 0.168,-30.125 0.332,-5.746 0.164,-0.265 0.333,-3.797 1.161,-4.496 0.496,-1.379 0.993,-6.512 0.332,-2 0.168,-0.484 0.497,-4.887 0.664,-5.047 0.329,-2.586 0.168,-3.906 0.164,-0.094 0.496,-3.883 0.168,-1.871 0.165,-0.254 0.168,-1.015 0.164,-0.024 0.164,-0.39 0.168,-1.672 0.332,-0.485 0.497,-2.656 0.332,-0.406 0.332,-1.828 0.165,-0.008 0.164,-0.457 0.168,-0.793 0.164,-0.234 0.497,-1.231 0.5,-0.715 0.661,-1.367 0.168,-0.129 0.328,-0.875 0.5,-0.535 0.333,-0.66 0.328,-0.078 0.665,-0.684 0.164,-0.609 0.332,-0.164 0.332,-0.399 0.164,-0.011 0.169,-0.321 0.164,-0.074 0.496,-0.512 0.168,-0.043 0.164,-0.293 0.169,-0.004 1.657,-1.394 0.332,-0.227 0.661,-0.214 0.332,-0.172 1.99,-1.383 0.164,-0.039 0.332,-0.266 0.665,-0.351 0.496,-0.227 0.665,-0.465 0.328,-0.344 0.501,-0.222 0.332,-0.223 0.164,-0.105 0.332,-0.438 0.333,-0.094 0.164,-0.035 0.332,-0.472 0.497,-0.145 0.496,-0.902 0.496,-0.746 0.333,-0.157 0.332,-0.726 0.164,-0.074 0.168,-0.34 0.332,-0.098 0.333,-0.187 0.66,-0.047 h 306.691 l 0.496,-1.461 0.164,-0.164 0.168,-0.336 0.165,-0.039 0.168,-0.492 0.164,-0.09 0.164,-0.582 0.168,-0.039 0.497,-2.606 0.332,-3.469 0.164,-0.273 0.168,-1.473 0.164,-3.07 0.165,-8.715"
         style="fill:none;stroke:#d62728;stroke-width:1.50174;stroke-linecap:square;stroke-linejoin:round;stroke-miterlimit:10;stroke-dasharray:none;stroke-opacity:1"
         transform="scale(1.3323693,-1.3333333)"
         clip-path="url(#clipPath26)"
         id="path27" />
    </g>
    <path
       id="path29"
       d="M 77.239,-288.492 V -70.91"
       style="fill:none;stroke:#000000;stroke-width:0.800926;stroke-linecap:square;stroke-linejoin:miter;stroke-miterlimit:10;stroke-dasharray:none;stroke-opacity:1"
       transform="scale(1.3323693,-1.3333333)" />
    <path
       id="path30"
       d="M 450.521,-288.492 V -70.91"
       style="fill:none;stroke:#000000;stroke-width:0.800926;stroke-linecap:square;stroke-linejoin:miter;stroke-miterlimit:10;stroke-dasharray:none;stroke-opacity:1"
       transform="scale(1.3323693,-1.3333333)" />
    <path
       id="path31"
       d="M 77.239,-288.492 H 450.521"
       style="fill:none;stroke:#000000;stroke-width:0.800926;stroke-linecap:square;stroke-linejoin:miter;stroke-miterlimit:10;stroke-dasharray:none;stroke-opacity:1"
       transform="scale(1.3323693,-1.3333333)" />
    <path
       id="path32"
       d="M 77.239,-70.91 H 450.521"
       style="fill:none;stroke:#000000;stroke-width:0.800926;stroke-linecap:square;stroke-linejoin:miter;stroke-miterlimit:10;stroke-dasharray:none;stroke-opacity:1"
       transform="scale(1.3323693,-1.3333333)" />
    <path
       id="path33"
       d="m 101.926,67.488 h 327.527 c 1.735,0 2.602,-0.867 2.602,-2.601 V 27.625 c 0,-1.734 -0.867,-2.602 -2.602,-2.602 H 101.926 c -1.735,0 -2.602,0.868 -2.602,2.602 v 37.262 c 0,1.734 0.867,2.601 2.602,2.601 z"
       style="fill:#4c4c4c;fill-opacity:0.5;fill-rule:nonzero;stroke:none"
       transform="scale(1.3333333)" />
    <path
       id="path34"
       d="m 101.999,-67.488 h 327.765 c 1.735,0 2.603,0.867 2.603,2.601 v 37.262 c 0,1.734 -0.868,2.602 -2.603,2.602 H 101.999 c -1.735,0 -2.603,-0.868 -2.603,-2.602 v -37.262 c 0,-1.734 0.868,-2.601 2.603,-2.601 z"
       style="fill:none;stroke:#4c4c4c;stroke-width:1.00116;stroke-linecap:butt;stroke-linejoin:miter;stroke-miterlimit:10;stroke-dasharray:none;stroke-opacity:0.5"
       transform="scale(1.3323693,-1.3333333)" />
    <path
       id="path35"
       d="m 99.998,-65.488 h 327.764 c 1.736,0 2.604,0.871 2.604,2.605 v 37.258 c 0,1.734 -0.868,2.602 -2.604,2.602 H 99.998 c -1.736,0 -2.603,-0.868 -2.603,-2.602 v -37.258 c 0,-1.734 0.867,-2.605 2.603,-2.605 z"
       style="fill:#ffffff;fill-opacity:1;fill-rule:nonzero;stroke:#cccccc;stroke-width:1.00116;stroke-linecap:butt;stroke-linejoin:miter;stroke-miterlimit:10;stroke-dasharray:none;stroke-opacity:1"
       transform="scale(1.3323693,-1.3333333)" />
    <path
       id="path36"
       d="m 102.601,-33.559 h 26.031"
       style="fill:none;stroke:#1f77b4;stroke-width:1.50174;stroke-linecap:square;stroke-linejoin:round;stroke-miterlimit:10;stroke-dasharray:none;stroke-opacity:1"
       transform="scale(1.3323693,-1.3333333)" />
    <text
       id="text36"
       xml:space="preserve"
       transform="matrix(1.3333333,0,0,1.3342974,185.25744,50.818752)"><tspan
         style="font-variant:normal;font-weight:normal;font-size:13.0056px;font-family:Verdana;writing-mode:lr-tb;fill:#000000;fill-opacity:1;fill-rule:nonzero;stroke:none"
         x="0 8.9159775 16.726982 22.277243 25.846174 33.739735 44.383022 48.955318 55.694984 66.338272 69.907204 78.137337"
         y="0"
         id="tspan36">Barlow Twins</tspan></text>
    <path
       id="path37"
       d="m 102.601,-53.02 h 26.031"
       style="fill:none;stroke:#ff7f0e;stroke-width:1.50174;stroke-linecap:square;stroke-linejoin:round;stroke-miterlimit:10;stroke-dasharray:none;stroke-opacity:1"
       transform="scale(1.3323693,-1.3333333)" />
    <text
       id="text37"
       xml:space="preserve"
       transform="matrix(1.3333333,0,0,1.3342974,185.25744,76.765415)"><tspan
         style="font-variant:normal;font-weight:normal;font-size:13.0056px;font-family:Verdana;writing-mode:lr-tb;fill:#000000;fill-opacity:1;fill-rule:nonzero;stroke:none"
         x="0 8.760519 19.403809 27.917221"
         y="0"
         id="tspan37">SwAV</tspan></text>
    <path
       id="path38"
       d="m 246.792,33.559 h 26.03"
       style="fill:none;stroke:#2ca02c;stroke-width:1.50174;stroke-linecap:square;stroke-linejoin:round;stroke-miterlimit:10;stroke-dasharray:none;stroke-opacity:1"
       transform="scale(1.3323693,1.3333333)" />
    <text
       id="text38"
       xml:space="preserve"
       transform="matrix(1.3333333,0,0,1.3342974,377.37412,50.818749)"><tspan
         style="font-variant:normal;font-weight:normal;font-size:13.0056px;font-family:Verdana;writing-mode:lr-tb;fill:#000000;fill-opacity:1;fill-rule:nonzero;stroke:none"
         x="0 9.0810709 16.923813 24.163267 31.910755 39.721745 45.271996"
         y="0"
         id="tspan38">CPLearn</tspan></text>
    <path
       id="path39"
       d="m 356.132,33.559 h 26.031"
       style="fill:none;stroke:#d62728;stroke-width:1.50174;stroke-linecap:square;stroke-linejoin:round;stroke-miterlimit:10;stroke-dasharray:none;stroke-opacity:1"
       transform="scale(1.3323693,1.3333333)" />
    <text
       id="text39"
       xml:space="preserve"
       transform="matrix(1.3333333,0,0,1.3342974,523.05399,50.818749)"><tspan
         style="font-variant:normal;font-weight:normal;font-size:13.0056px;font-family:Verdana;writing-mode:lr-tb;fill:#000000;fill-opacity:1;fill-rule:nonzero;stroke:none"
         x="0 10.020929 15.494973 25.223785"
         y="0"
         id="tspan39">DINO</tspan></text>
  </g>
</svg>
