<?xml version="1.0" encoding="UTF-8" standalone="no"?>
<!-- Created with Inkscape (http://www.inkscape.org/) -->

<svg
   version="1.1"
   id="svg1"
   width="614.66669"
   height="461.33334"
   viewBox="0 0 614.66669 461.33334"
   xmlns="http://www.w3.org/2000/svg"
   xmlns:svg="http://www.w3.org/2000/svg">
  <defs
     id="defs1">
    <clipPath
       clipPathUnits="userSpaceOnUse"
       id="clipPath3">
      <path
         d="M 0,0 H 461 V 346 H 0 Z"
         id="path3" />
    </clipPath>
    <clipPath
       clipPathUnits="userSpaceOnUse"
       id="clipPath5">
      <path
         d="M 121.484,70.91 H 450.195 V 284.625 H 121.484 Z"
         transform="scale(1.3333333)"
         id="path5" />
    </clipPath>
    <clipPath
       clipPathUnits="userSpaceOnUse"
       id="clipPath6">
      <path
         d="M 0,0 H 461 V 346 H 0 Z"
         id="path6" />
    </clipPath>
    <clipPath
       clipPathUnits="userSpaceOnUse"
       id="clipPath8">
      <path
         d="M 121.484,70.91 H 450.195 V 284.625 H 121.484 Z"
         transform="scale(1.3333333)"
         id="path8" />
    </clipPath>
    <clipPath
       clipPathUnits="userSpaceOnUse"
       id="clipPath9">
      <path
         d="M 0,0 H 461 V 346 H 0 Z"
         id="path9" />
    </clipPath>
    <clipPath
       clipPathUnits="userSpaceOnUse"
       id="clipPath11">
      <path
         d="M 121.484,70.91 H 450.195 V 284.625 H 121.484 Z"
         transform="scale(1.3333333)"
         id="path11" />
    </clipPath>
    <clipPath
       clipPathUnits="userSpaceOnUse"
       id="clipPath12">
      <path
         d="M 0,0 H 461 V 346 H 0 Z"
         id="path12" />
    </clipPath>
    <clipPath
       clipPathUnits="userSpaceOnUse"
       id="clipPath14">
      <path
         d="M 121.484,70.91 H 450.195 V 284.625 H 121.484 Z"
         transform="scale(1.3333333)"
         id="path14" />
    </clipPath>
    <clipPath
       clipPathUnits="userSpaceOnUse"
       id="clipPath29">
      <path
         d="M 0,0 H 461 V 346 H 0 Z"
         id="path29" />
    </clipPath>
    <clipPath
       clipPathUnits="userSpaceOnUse"
       id="clipPath31">
      <path
         d="M 13.656,237.293 H 69.98 V 271.25 H 13.656 Z"
         transform="scale(1.3333333)"
         id="path31" />
    </clipPath>
    <clipPath
       clipPathUnits="userSpaceOnUse"
       id="clipPath33">
      <path
         d="M 0,0 H 461 V 346 H 0 Z"
         id="path33" />
    </clipPath>
    <clipPath
       clipPathUnits="userSpaceOnUse"
       id="clipPath35">
      <path
         d="m 26.379,178.043 h 56.328 v 33.961 H 26.379 Z"
         transform="scale(1.3333333)"
         id="path35" />
    </clipPath>
    <clipPath
       clipPathUnits="userSpaceOnUse"
       id="clipPath37">
      <path
         d="M 0,0 H 461 V 346 H 0 Z"
         id="path37" />
    </clipPath>
    <clipPath
       clipPathUnits="userSpaceOnUse"
       id="clipPath39">
      <path
         d="m 26.379,118.797 h 56.328 v 33.957 H 26.379 Z"
         transform="scale(1.3333333)"
         id="path39" />
    </clipPath>
    <clipPath
       clipPathUnits="userSpaceOnUse"
       id="clipPath41">
      <path
         d="M 0,0 H 461 V 346 H 0 Z"
         id="path41" />
    </clipPath>
    <clipPath
       clipPathUnits="userSpaceOnUse"
       id="clipPath43">
      <path
         d="M 26.379,59.547 H 82.707 V 93.508 H 26.379 Z"
         transform="scale(1.3333333)"
         id="path43" />
    </clipPath>
    <clipPath
       clipPathUnits="userSpaceOnUse"
       id="clipPath44">
      <path
         d="M 0,0 H 461 V 346 H 0 Z"
         transform="scale(1.0007235,-1)"
         id="path44" />
    </clipPath>
    <clipPath
       clipPathUnits="userSpaceOnUse"
       id="clipPath46">
      <path
         d="M 121.484,70.91 H 450.195 V 284.625 H 121.484 Z"
         transform="scale(1.3333333)"
         id="path46" />
    </clipPath>
    <clipPath
       clipPathUnits="userSpaceOnUse"
       id="clipPath47">
      <path
         d="M 0,0 H 461 V 346 H 0 Z"
         transform="scale(1.0007235,-1)"
         id="path47" />
    </clipPath>
    <clipPath
       clipPathUnits="userSpaceOnUse"
       id="clipPath49">
      <path
         d="M 121.484,70.91 H 450.195 V 284.625 H 121.484 Z"
         transform="scale(1.3333333)"
         id="path49" />
    </clipPath>
    <clipPath
       clipPathUnits="userSpaceOnUse"
       id="clipPath50">
      <path
         d="M 0,0 H 461 V 346 H 0 Z"
         transform="scale(1.0007235,-1)"
         id="path50" />
    </clipPath>
    <clipPath
       clipPathUnits="userSpaceOnUse"
       id="clipPath52">
      <path
         d="M 121.484,70.91 H 450.195 V 284.625 H 121.484 Z"
         transform="scale(1.3333333)"
         id="path52" />
    </clipPath>
    <clipPath
       clipPathUnits="userSpaceOnUse"
       id="clipPath53">
      <path
         d="M 0,0 H 461 V 346 H 0 Z"
         transform="scale(1.0007235,-1)"
         id="path53" />
    </clipPath>
    <clipPath
       clipPathUnits="userSpaceOnUse"
       id="clipPath55">
      <path
         d="M 121.484,70.91 H 450.195 V 284.625 H 121.484 Z"
         transform="scale(1.3333333)"
         id="path55" />
    </clipPath>
  </defs>
  <g
     id="g1">
    <path
       id="path1"
       d="M 0,0 H 461 V 346 H 0 Z"
       style="fill:#ffffff;fill-opacity:1;fill-rule:nonzero;stroke:none"
       transform="scale(1.3333333)" />
    <path
       id="path2"
       d="M 121.484,70.91 H 450.195 V 284.625 H 121.484 Z"
       style="fill:#ffffff;fill-opacity:1;fill-rule:nonzero;stroke:none"
       transform="scale(1.3333333)" />
    <g
       id="g4"
       clip-path="url(#clipPath5)">
      <path
         d="m 136.426,193.855 v 0.551 l 69.14,15.293 91.403,14.293 69.14,9.375 69.145,10.27 v -0.391 l -69.145,-10.187 -69.14,-9.559 -91.403,-14.316 z"
         style="fill:#1f77b4;fill-opacity:0.2;fill-rule:nonzero;stroke:none"
         transform="scale(1.3333333)"
         clip-path="url(#clipPath3)"
         id="path4" />
    </g>
    <g
       id="g7"
       clip-path="url(#clipPath8)">
      <path
         d="m 136.426,273.863 v 0.02 l 69.14,0.164 91.403,0.281 69.14,0.277 69.145,0.305 v -0.015 l -69.145,-0.305 -69.14,-0.281 -91.403,-0.282 z"
         style="fill:#ff7f0e;fill-opacity:0.2;fill-rule:nonzero;stroke:none"
         transform="scale(1.3333333)"
         clip-path="url(#clipPath6)"
         id="path7" />
    </g>
    <g
       id="g10"
       clip-path="url(#clipPath11)">
      <path
         d="m 136.426,80.625 v 0.066 l 69.14,3.594 91.403,4.969 69.14,3.816 69.145,3.453 v -0.128 l -69.145,-3.457 -69.14,-3.836 -91.403,-4.934 z"
         style="fill:#2ca02c;fill-opacity:0.2;fill-rule:nonzero;stroke:none"
         transform="scale(1.3333333)"
         clip-path="url(#clipPath9)"
         id="path10" />
    </g>
    <g
       id="g13"
       clip-path="url(#clipPath14)">
      <path
         d="m 136.426,258.969 v 0.023 l 69.14,0.938 91.403,1.132 69.14,0.778 69.145,0.785 v -0.031 l -69.145,-0.782 -69.14,-0.785 -91.403,-1.117 z"
         style="fill:#d62728;fill-opacity:0.2;fill-rule:nonzero;stroke:none"
         transform="scale(1.3333333)"
         clip-path="url(#clipPath12)"
         id="path13" />
    </g>
    <path
       id="path15"
       d="m 136.524,-284.625 v -3.504"
       style="fill:none;stroke:#000000;stroke-width:0.800926;stroke-linecap:butt;stroke-linejoin:round;stroke-miterlimit:10;stroke-dasharray:none;stroke-opacity:1"
       transform="scale(1.3323693,-1.3333333)" />
    <text
       id="text15"
       xml:space="preserve"
       transform="matrix(1.3333333,0,0,1.3342975,157.88849,408.95087)"><tspan
         style="font-variant:normal;font-weight:normal;font-size:20.0087px;font-family:Verdana;writing-mode:lr-tb;fill:#000000;fill-opacity:1;fill-rule:nonzero;stroke:none"
         x="0 12.720362"
         y="0"
         id="tspan15">10</tspan></text>
    <text
       id="text16"
       xml:space="preserve"
       transform="matrix(1.3333333,0,0,1.3342976,192.09083,398.73072)"><tspan
         style="font-variant:normal;font-weight:normal;font-size:14.0061px;font-family:Verdana;writing-mode:lr-tb;fill:#000000;fill-opacity:1;fill-rule:nonzero;stroke:none"
         x="0"
         y="0"
         id="tspan16">1</tspan></text>
    <path
       id="path16"
       d="m 366.374,-284.625 v -3.504"
       style="fill:none;stroke:#000000;stroke-width:0.800926;stroke-linecap:butt;stroke-linejoin:round;stroke-miterlimit:10;stroke-dasharray:none;stroke-opacity:1"
       transform="scale(1.3323693,-1.3333333)" />
    <text
       id="text17"
       xml:space="preserve"
       transform="matrix(1.3333333,0,0,1.3342975,464.13778,408.71935)"><tspan
         style="font-variant:normal;font-weight:normal;font-size:20.0087px;font-family:Verdana;writing-mode:lr-tb;fill:#000000;fill-opacity:1;fill-rule:nonzero;stroke:none"
         x="0 12.720362"
         y="0"
         id="tspan17">10</tspan></text>
    <text
       id="text18"
       xml:space="preserve"
       transform="matrix(1.3333333,0,0,1.3342976,498.34012,398.4992)"><tspan
         style="font-variant:normal;font-weight:normal;font-size:14.0061px;font-family:Verdana;writing-mode:lr-tb;fill:#000000;fill-opacity:1;fill-rule:nonzero;stroke:none"
         x="0"
         y="0"
         id="tspan18">2</tspan></text>
    <path
       id="path18"
       d="m 126.005,-284.625 v -2"
       style="fill:none;stroke:#000000;stroke-width:0.600694;stroke-linecap:butt;stroke-linejoin:round;stroke-miterlimit:10;stroke-dasharray:none;stroke-opacity:1"
       transform="scale(1.3323693,-1.3333333)" />
    <path
       id="path19"
       d="m 205.715,-284.625 v -2"
       style="fill:none;stroke:#000000;stroke-width:0.600694;stroke-linecap:butt;stroke-linejoin:round;stroke-miterlimit:10;stroke-dasharray:none;stroke-opacity:1"
       transform="scale(1.3323693,-1.3333333)" />
    <path
       id="path20"
       d="m 246.19,-284.625 v -2"
       style="fill:none;stroke:#000000;stroke-width:0.600694;stroke-linecap:butt;stroke-linejoin:round;stroke-miterlimit:10;stroke-dasharray:none;stroke-opacity:1"
       transform="scale(1.3323693,-1.3333333)" />
    <path
       id="path21"
       d="m 274.91,-284.625 v -2"
       style="fill:none;stroke:#000000;stroke-width:0.600694;stroke-linecap:butt;stroke-linejoin:round;stroke-miterlimit:10;stroke-dasharray:none;stroke-opacity:1"
       transform="scale(1.3323693,-1.3333333)" />
    <path
       id="path22"
       d="m 297.183,-284.625 v -2"
       style="fill:none;stroke:#000000;stroke-width:0.600694;stroke-linecap:butt;stroke-linejoin:round;stroke-miterlimit:10;stroke-dasharray:none;stroke-opacity:1"
       transform="scale(1.3323693,-1.3333333)" />
    <path
       id="path23"
       d="m 315.384,-284.625 v -2"
       style="fill:none;stroke:#000000;stroke-width:0.600694;stroke-linecap:butt;stroke-linejoin:round;stroke-miterlimit:10;stroke-dasharray:none;stroke-opacity:1"
       transform="scale(1.3323693,-1.3333333)" />
    <path
       id="path24"
       d="m 330.77,-284.625 v -2"
       style="fill:none;stroke:#000000;stroke-width:0.600694;stroke-linecap:butt;stroke-linejoin:round;stroke-miterlimit:10;stroke-dasharray:none;stroke-opacity:1"
       transform="scale(1.3323693,-1.3333333)" />
    <path
       id="path25"
       d="m 344.1,-284.625 v -2"
       style="fill:none;stroke:#000000;stroke-width:0.600694;stroke-linecap:butt;stroke-linejoin:round;stroke-miterlimit:10;stroke-dasharray:none;stroke-opacity:1"
       transform="scale(1.3323693,-1.3333333)" />
    <path
       id="path26"
       d="m 355.859,-284.625 v -2"
       style="fill:none;stroke:#000000;stroke-width:0.600694;stroke-linecap:butt;stroke-linejoin:round;stroke-miterlimit:10;stroke-dasharray:none;stroke-opacity:1"
       transform="scale(1.3323693,-1.3333333)" />
    <path
       id="path27"
       d="m 435.569,-284.625 v -2"
       style="fill:none;stroke:#000000;stroke-width:0.600694;stroke-linecap:butt;stroke-linejoin:round;stroke-miterlimit:10;stroke-dasharray:none;stroke-opacity:1"
       transform="scale(1.3323693,-1.3333333)" />
    <text
       id="text27"
       xml:space="preserve"
       transform="matrix(1.3333333,0,0,1.3342975,167.38011,441.17354)"><tspan
         style="font-variant:normal;font-weight:normal;font-size:20.0087px;font-family:Verdana;writing-mode:lr-tb;fill:#000000;fill-opacity:1;fill-rule:nonzero;stroke:none"
         x="0 14.96743 27.629171 47.09074 59.837204 72.156609 80.375336 86.72934 98.97332 106.00762 112.38164 129.6646 135.21529 147.05637 154.94064 167.60239 175.38092 187.68031 194.05434 208.02524 220.24921 239.71077 252.45724 264.70123 277.36298 289.68237 302.34412 310.22839"
         y="0"
         id="tspan27">Number of Mixture Components</tspan></text>
    <path
       id="path28"
       d="m 121.572,-254.371 h -3.506"
       style="fill:none;stroke:#000000;stroke-width:0.800926;stroke-linecap:butt;stroke-linejoin:round;stroke-miterlimit:10;stroke-dasharray:none;stroke-opacity:1"
       transform="scale(1.3323693,-1.3333333)" />
    <text
       id="text28"
       xml:space="preserve"
       transform="matrix(1.3333333,0,0,1.3342975,67.800661,349.30719)"><tspan
         style="font-variant:normal;font-weight:normal;font-size:20.0087px;font-family:Verdana;writing-mode:lr-tb;fill:#000000;fill-opacity:1;fill-rule:nonzero;stroke:none"
         x="0 12.720362 25.440723 38.161083 50.881447"
         y="0"
         id="tspan28">10000</tspan></text>
    <g
       id="g30"
       clip-path="url(#clipPath31)">
      <path
         d="M 36.207,254.871 H 48.73 v 1.664 H 36.207 Z"
         style="fill:#000000;fill-opacity:1;fill-rule:nonzero;stroke:none"
         transform="scale(1.3333333)"
         clip-path="url(#clipPath29)"
         id="path30" />
    </g>
    <path
       id="path32"
       d="m 121.572,-195.121 h -3.506"
       style="fill:none;stroke:#000000;stroke-width:0.800926;stroke-linecap:butt;stroke-linejoin:round;stroke-miterlimit:10;stroke-dasharray:none;stroke-opacity:1"
       transform="scale(1.3323693,-1.3333333)" />
    <text
       id="text32"
       xml:space="preserve"
       transform="matrix(1.3333333,0,0,1.3342975,84.766355,270.30991)"><tspan
         style="font-variant:normal;font-weight:normal;font-size:20.0087px;font-family:Verdana;writing-mode:lr-tb;fill:#000000;fill-opacity:1;fill-rule:nonzero;stroke:none"
         x="0 12.720362 25.440723 38.161083"
         y="0"
         id="tspan32">8000</tspan></text>
    <g
       id="g34"
       clip-path="url(#clipPath35)">
      <path
         d="m 48.93,195.625 h 12.527 v 1.66 H 48.93 Z"
         style="fill:#000000;fill-opacity:1;fill-rule:nonzero;stroke:none"
         transform="scale(1.3333333)"
         clip-path="url(#clipPath33)"
         id="path34" />
    </g>
    <path
       id="path36"
       d="m 121.572,-135.875 h -3.506"
       style="fill:none;stroke:#000000;stroke-width:0.800926;stroke-linecap:butt;stroke-linejoin:round;stroke-miterlimit:10;stroke-dasharray:none;stroke-opacity:1"
       transform="scale(1.3323693,-1.3333333)" />
    <text
       id="text36"
       xml:space="preserve"
       transform="matrix(1.3333333,0,0,1.3342975,84.766355,191.31264)"><tspan
         style="font-variant:normal;font-weight:normal;font-size:20.0087px;font-family:Verdana;writing-mode:lr-tb;fill:#000000;fill-opacity:1;fill-rule:nonzero;stroke:none"
         x="0 12.720362 25.440723 38.161083"
         y="0"
         id="tspan36">6000</tspan></text>
    <g
       id="g38"
       clip-path="url(#clipPath39)">
      <path
         d="m 48.93,136.375 h 12.527 v 1.664 H 48.93 Z"
         style="fill:#000000;fill-opacity:1;fill-rule:nonzero;stroke:none"
         transform="scale(1.3333333)"
         clip-path="url(#clipPath37)"
         id="path38" />
    </g>
    <path
       id="path40"
       d="m 121.572,-76.625 h -3.506"
       style="fill:none;stroke:#000000;stroke-width:0.800926;stroke-linecap:butt;stroke-linejoin:round;stroke-miterlimit:10;stroke-dasharray:none;stroke-opacity:1"
       transform="scale(1.3323693,-1.3333333)" />
    <text
       id="text40"
       xml:space="preserve"
       transform="matrix(1.3333333,0,0,1.3342975,84.766355,112.31536)"><tspan
         style="font-variant:normal;font-weight:normal;font-size:20.0087px;font-family:Verdana;writing-mode:lr-tb;fill:#000000;fill-opacity:1;fill-rule:nonzero;stroke:none"
         x="0 12.720362 25.440723 38.161083"
         y="0"
         id="tspan40">4000</tspan></text>
    <g
       id="g42"
       clip-path="url(#clipPath43)">
      <path
         d="m 48.93,77.129 h 12.527 v 1.66 H 48.93 Z"
         style="fill:#000000;fill-opacity:1;fill-rule:nonzero;stroke:none"
         transform="scale(1.3333333)"
         clip-path="url(#clipPath41)"
         id="path42" />
    </g>
    <text
       id="text43"
       xml:space="preserve"
       transform="matrix(0,-1.3333333,1.3323698,0,34.567496,352.07203)"><tspan
         style="font-variant:normal;font-weight:normal;font-size:20.0231px;font-family:Verdana;writing-mode:lr-tb;fill:#000000;fill-opacity:1;fill-rule:nonzero;stroke:none"
         x="0 12.661121 25.33202 33.222 40.986134 53.238968 65.954605 77.804245 84.182869 96.843987 107.27597 115.10588 120.68061 140.15625 152.46219 160.35217"
         y="0"
         id="tspan43">Entropy Estimate</tspan></text>
    <g
       id="g45"
       clip-path="url(#clipPath46)">
      <path
         d="m 136.524,-194.129 69.191,-15.312 91.468,-14.305 69.191,-9.465 69.195,-10.23"
         style="fill:none;stroke:#1f77b4;stroke-width:1.50174;stroke-linecap:square;stroke-linejoin:round;stroke-miterlimit:10;stroke-dasharray:none;stroke-opacity:1"
         transform="scale(1.3323693,-1.3333333)"
         clip-path="url(#clipPath44)"
         id="path45" />
    </g>
    <g
       id="g48"
       clip-path="url(#clipPath49)">
      <path
         d="m 136.524,-273.875 69.191,-0.16 91.468,-0.285 69.191,-0.278 69.195,-0.304"
         style="fill:none;stroke:#ff7f0e;stroke-width:1.50174;stroke-linecap:square;stroke-linejoin:round;stroke-miterlimit:10;stroke-dasharray:none;stroke-opacity:1"
         transform="scale(1.3323693,-1.3333333)"
         clip-path="url(#clipPath47)"
         id="path48" />
    </g>
    <g
       id="g51"
       clip-path="url(#clipPath52)">
      <path
         d="m 136.524,-80.66 69.191,-3.567 91.468,-4.953 69.191,-3.824 69.195,-3.457"
         style="fill:none;stroke:#2ca02c;stroke-width:1.50174;stroke-linecap:square;stroke-linejoin:round;stroke-miterlimit:10;stroke-dasharray:none;stroke-opacity:1"
         transform="scale(1.3323693,-1.3333333)"
         clip-path="url(#clipPath50)"
         id="path51" />
    </g>
    <g
       id="g54"
       clip-path="url(#clipPath55)">
      <path
         d="m 136.524,-258.98 69.191,-0.938 91.468,-1.125 69.191,-0.781 69.195,-0.785"
         style="fill:none;stroke:#d62728;stroke-width:1.50174;stroke-linecap:square;stroke-linejoin:round;stroke-miterlimit:10;stroke-dasharray:none;stroke-opacity:1"
         transform="scale(1.3323693,-1.3333333)"
         clip-path="url(#clipPath53)"
         id="path54" />
    </g>
    <path
       id="path56"
       d="M 121.572,-284.625 V -70.91"
       style="fill:none;stroke:#000000;stroke-width:0.800926;stroke-linecap:square;stroke-linejoin:miter;stroke-miterlimit:10;stroke-dasharray:none;stroke-opacity:1"
       transform="scale(1.3323693,-1.3333333)" />
    <path
       id="path57"
       d="M 450.521,-284.625 V -70.91"
       style="fill:none;stroke:#000000;stroke-width:0.800926;stroke-linecap:square;stroke-linejoin:miter;stroke-miterlimit:10;stroke-dasharray:none;stroke-opacity:1"
       transform="scale(1.3323693,-1.3333333)" />
    <path
       id="path58"
       d="M 121.572,-284.625 H 450.521"
       style="fill:none;stroke:#000000;stroke-width:0.800926;stroke-linecap:square;stroke-linejoin:miter;stroke-miterlimit:10;stroke-dasharray:none;stroke-opacity:1"
       transform="scale(1.3323693,-1.3333333)" />
    <path
       id="path59"
       d="M 121.572,-70.91 H 450.521"
       style="fill:none;stroke:#000000;stroke-width:0.800926;stroke-linecap:square;stroke-linejoin:miter;stroke-miterlimit:10;stroke-dasharray:none;stroke-opacity:1"
       transform="scale(1.3323693,-1.3333333)" />
    <path
       id="path60"
       d="m 124.078,68.457 h 327.524 c 1.734,0 2.601,-0.867 2.601,-2.605 V 28.594 c 0,-1.735 -0.867,-2.602 -2.601,-2.602 H 124.078 c -1.734,0 -2.601,0.867 -2.601,2.602 v 37.258 c 0,1.738 0.867,2.605 2.601,2.605 z"
       style="fill:#4c4c4c;fill-opacity:0.5;fill-rule:nonzero;stroke:none"
       transform="scale(1.3333333)" />
    <path
       id="path61"
       d="m 124.168,-68.457 h 327.76 c 1.736,0 2.604,0.867 2.604,2.605 v 37.258 c 0,1.735 -0.868,2.602 -2.604,2.602 h -327.76 c -1.736,0 -2.604,-0.867 -2.604,-2.602 v -37.258 c 0,-1.738 0.868,-2.605 2.604,-2.605 z"
       style="fill:none;stroke:#4c4c4c;stroke-width:1.00116;stroke-linecap:butt;stroke-linejoin:miter;stroke-miterlimit:10;stroke-dasharray:none;stroke-opacity:0.5"
       transform="scale(1.3323693,-1.3333333)" />
    <path
       id="path62"
       d="m 122.162,-66.453 h 327.765 c 1.735,0 2.603,0.867 2.603,2.601 v 37.258 c 0,1.739 -0.868,2.606 -2.603,2.606 H 122.162 c -1.735,0 -2.599,-0.867 -2.599,-2.606 v -37.258 c 0,-1.734 0.864,-2.601 2.599,-2.601 z"
       style="fill:#ffffff;fill-opacity:1;fill-rule:nonzero;stroke:#cccccc;stroke-width:1.00116;stroke-linecap:butt;stroke-linejoin:miter;stroke-miterlimit:10;stroke-dasharray:none;stroke-opacity:1"
       transform="scale(1.3323693,-1.3333333)" />
    <path
       id="path63"
       d="m 124.766,-34.527 h 26.03"
       style="fill:none;stroke:#1f77b4;stroke-width:1.50174;stroke-linecap:square;stroke-linejoin:round;stroke-miterlimit:10;stroke-dasharray:none;stroke-opacity:1"
       transform="scale(1.3323693,-1.3333333)" />
    <text
       id="text63"
       xml:space="preserve"
       transform="matrix(1.3333333,0,0,1.3342974,214.79026,52.108743)"><tspan
         style="font-variant:normal;font-weight:normal;font-size:13.0056px;font-family:Verdana;writing-mode:lr-tb;fill:#000000;fill-opacity:1;fill-rule:nonzero;stroke:none"
         x="0 8.9159775 16.726982 22.277243 25.846174 33.739735 44.383022 48.955318 55.694984 66.338272 69.907204 78.137337"
         y="0"
         id="tspan63">Barlow Twins</tspan></text>
    <path
       id="path64"
       d="m 124.766,-53.984 h 26.03"
       style="fill:none;stroke:#ff7f0e;stroke-width:1.50174;stroke-linecap:square;stroke-linejoin:round;stroke-miterlimit:10;stroke-dasharray:none;stroke-opacity:1"
       transform="scale(1.3323693,-1.3333333)" />
    <text
       id="text64"
       xml:space="preserve"
       transform="matrix(1.3333333,0,0,1.3342974,214.79026,78.055407)"><tspan
         style="font-variant:normal;font-weight:normal;font-size:13.0056px;font-family:Verdana;writing-mode:lr-tb;fill:#000000;fill-opacity:1;fill-rule:nonzero;stroke:none"
         x="0 8.760519 19.403809 27.917221"
         y="0"
         id="tspan64">SwAV</tspan></text>
    <path
       id="path65"
       d="m 267.459,34.527 h 26.027"
       style="fill:none;stroke:#2ca02c;stroke-width:1.50174;stroke-linecap:square;stroke-linejoin:round;stroke-miterlimit:10;stroke-dasharray:none;stroke-opacity:1"
       transform="scale(1.3323693,1.3333333)" />
    <text
       id="text65"
       xml:space="preserve"
       transform="matrix(1.3333333,0,0,1.3342974,404.90606,52.108743)"><tspan
         style="font-variant:normal;font-weight:normal;font-size:13.0056px;font-family:Verdana;writing-mode:lr-tb;fill:#000000;fill-opacity:1;fill-rule:nonzero;stroke:none"
         x="0 9.0810709 16.923813 24.163267 31.910755 39.721745 45.271996"
         y="0"
         id="tspan65">CPLearn</tspan></text>
    <path
       id="path66"
       d="m 378.297,34.527 h 26.03"
       style="fill:none;stroke:#d62728;stroke-width:1.50174;stroke-linecap:square;stroke-linejoin:round;stroke-miterlimit:10;stroke-dasharray:none;stroke-opacity:1"
       transform="scale(1.3323693,1.3333333)" />
    <text
       id="text66"
       xml:space="preserve"
       transform="matrix(1.3333333,0,0,1.3342974,552.58682,52.108743)"><tspan
         style="font-variant:normal;font-weight:normal;font-size:13.0056px;font-family:Verdana;writing-mode:lr-tb;fill:#000000;fill-opacity:1;fill-rule:nonzero;stroke:none"
         x="0 10.020929 15.494973 25.223785"
         y="0"
         id="tspan66">DINO</tspan></text>
  </g>
</svg>
